<svg version="1.1" xmlns="http://www.w3.org/2000/svg" width="512px" height="512px" transform="rotate(0) scale(1, 1)">
<path d="M0 0 C2.82683828 0.04739902 5.64991247 0.04106357 8.47705078 0.02783203 C18.85136931 0.05944467 27.54703735 0.33203588 36.28564453 6.49658203 C36.87603516 7.11146484 37.46642578 7.72634766 38.07470703 8.35986328 C38.68056641 8.96185547 39.28642578 9.56384766 39.91064453 10.18408203 C45.33289801 17.72551318 46.2825956 24.64013867 46.21437073 33.77281189 C46.22131626 34.96584334 46.22826178 36.1588748 46.23541778 37.38805872 C46.25048457 40.67787336 46.24777117 43.96710223 46.23726475 47.2569164 C46.23024748 50.81325919 46.24628975 54.36951129 46.25926208 57.92582703 C46.28086522 64.88434373 46.2807847 71.84269665 46.27263654 78.80123585 C46.26632774 84.45884635 46.26748163 90.11640922 46.27390862 95.77401924 C46.27481027 96.58031809 46.27571193 97.38661693 46.2766409 98.21734907 C46.27849217 99.85552196 46.28035473 101.49369485 46.28222846 103.13186771 C46.2987941 118.48152123 46.29009828 133.83108273 46.27324288 149.18073071 C46.25854723 163.2123124 46.27317457 177.24367993 46.30201305 191.27523404 C46.33143149 205.69680886 46.34237219 220.11828493 46.33283085 234.53988844 C46.33180833 236.1722228 46.33081372 237.80455717 46.32984734 239.43689156 C46.32913275 240.64147884 46.32913275 240.64147884 46.32840373 241.87040121 C46.32624282 247.51795256 46.33602644 253.16541006 46.35061836 258.8129406 C46.36816593 265.70023736 46.36798977 272.58726117 46.34526671 279.47454732 C46.33414625 282.9858029 46.33091124 286.49657803 46.34956741 290.0078125 C46.36550257 293.82064253 46.35053922 297.63216259 46.32789612 301.44493103 C46.33973185 302.54582044 46.35156757 303.64670985 46.36376196 304.78095955 C46.26514523 312.96997903 44.39529871 319.72452081 38.69166285 325.81747097 C30.97518316 332.98579209 23.79101571 334.8171673 13.46923828 334.87548828 C12.67877609 334.88118835 11.8883139 334.88688843 11.07389832 334.89276123 C9.40385259 334.90218216 7.73378853 334.90873362 6.0637207 334.91259766 C3.5377461 334.92226553 1.0125991 334.95330024 -1.51318359 334.98486328 C-14.34048313 335.0720747 -23.53980911 334.3739097 -33.16357422 325.08251953 C-38.52956893 319.02983445 -40.4177858 312.66072652 -40.43451405 304.63689995 C-40.43897189 303.64096065 -40.44342973 302.64502136 -40.44802266 301.61890209 C-40.4478383 300.53204935 -40.44765394 299.44519661 -40.44746399 298.32540894 C-40.45114068 297.16508561 -40.45481737 296.00476229 -40.45860547 294.80927765 C-40.4677131 291.5923562 -40.47233778 288.37546474 -40.47499478 285.15853262 C-40.47890604 281.68734035 -40.48848375 278.21616274 -40.49720764 274.74497986 C-40.51694813 266.36429506 -40.52703488 257.98360911 -40.53593543 249.60290688 C-40.54032201 245.65341341 -40.54568783 241.70392128 -40.5509243 237.75442886 C-40.56793363 224.62078314 -40.58242724 211.48713824 -40.58967304 198.3534832 C-40.59158284 194.94708124 -40.59350319 191.54067928 -40.59545898 188.13427734 C-40.59594272 187.28766506 -40.59642646 186.44105277 -40.59692486 185.56878556 C-40.60522316 171.85775698 -40.630558 158.14681569 -40.66303966 144.43582521 C-40.69613652 130.35000748 -40.71412415 116.26423408 -40.71731728 102.17837727 C-40.71947987 94.27333162 -40.72819176 86.3684133 -40.75377846 78.46340561 C-40.77552133 71.73053534 -40.78351828 64.99782335 -40.77381168 58.26492195 C-40.76927738 54.83259904 -40.77110174 51.40060247 -40.79057312 47.96832466 C-40.80828826 44.23901586 -40.8011864 40.51052923 -40.78804016 36.78121948 C-40.79900941 35.70775107 -40.80997865 34.63428266 -40.8212803 33.52828491 C-40.74409744 24.42933877 -38.7844794 14.9512774 -32.20019531 8.2253418 C-22.18487164 0.03882498 -12.40447454 -0.22247273 0 0 Z " fill="#ffffff" transform="translate(434.30029296875,149.32763671875)"/>
<path d="M0 0 C0.83161652 -0.01283524 1.66323303 -0.02567047 2.52005005 -0.03889465 C3.86533279 -0.04997505 3.86533279 -0.04997505 5.23779297 -0.0612793 C6.166633 -0.06935104 7.09547302 -0.07742279 8.05245972 -0.08573914 C10.02111957 -0.09957301 11.98980335 -0.11029828 13.95849609 -0.11816406 C16.94790153 -0.13531401 19.93618261 -0.17919882 22.92529297 -0.22338867 C24.84195154 -0.23352171 26.75861948 -0.2420359 28.67529297 -0.2487793 C30.00235764 -0.27504143 30.00235764 -0.27504143 31.35623169 -0.30183411 C39.84405347 -0.27263853 46.99050996 2.58459053 53.28466797 8.3371582 C59.41904406 15.5244496 61.00685932 23.52650037 60.99542236 32.70306396 C60.99839349 33.45235963 61.00136461 34.2016553 61.00442576 34.97365689 C61.01308487 37.47992653 61.01461865 39.98614824 61.01611328 42.49243164 C61.02074343 44.29135235 61.02576835 46.09027208 61.03115845 47.88919067 C61.04426544 52.77364027 61.05072408 57.65807612 61.05516911 62.54254055 C61.05810255 65.59583915 61.06220787 68.64913401 61.06667328 71.70243073 C61.08034368 81.2604199 61.0900126 90.81840053 61.09387517 100.3763988 C61.09835506 111.40059149 61.11590169 122.42466013 61.14487576 133.44881511 C61.16650839 141.97637712 61.17658029 150.50390427 61.17791629 159.03149343 C61.17896317 164.12178014 61.18484622 169.21195018 61.2027359 174.30220795 C61.2192439 179.0924119 61.22135883 183.88241182 61.21259689 188.67263412 C61.21182798 190.42655103 61.2161499 192.18047903 61.22605515 193.93436813 C61.29089175 206.13438502 60.96162727 216.509738 52.17138672 225.9934082 C42.90063363 234.92839961 31.97010092 234.66180471 19.78686523 234.56811523 C17.29404163 234.55201204 14.80283345 234.5680377 12.31005859 234.5871582 C0.96524826 234.60190323 -9.10368658 234.09752773 -17.73876953 225.6105957 C-24.77126932 217.90587167 -26.26577104 209.83462359 -26.2787323 199.64457703 C-26.28099786 198.90667759 -26.28326341 198.16877816 -26.28559762 197.40851814 C-26.29190543 194.94680847 -26.29111033 192.48515433 -26.2902832 190.0234375 C-26.29327671 188.25392588 -26.29667968 186.4844149 -26.30046082 184.71490479 C-26.30928568 179.91521859 -26.3116383 175.11555022 -26.3122766 170.3158567 C-26.31298798 167.31498324 -26.31512398 164.31411429 -26.31777382 161.31324196 C-26.32702234 150.83789406 -26.33110934 140.36255888 -26.33032227 129.88720703 C-26.32972165 120.13290246 -26.34027151 110.37865322 -26.35606593 100.62436265 C-26.36915504 92.24115289 -26.37450558 83.85796118 -26.37386686 75.47474128 C-26.37361227 70.4716887 -26.37644196 65.4686853 -26.38704491 60.46564293 C-26.39674891 55.75835513 -26.39678929 51.05116331 -26.38952827 46.34387207 C-26.38848528 44.62059704 -26.3908283 42.89731597 -26.39688873 41.17405128 C-26.43935108 28.25895343 -26.44167419 17.18617394 -17.14501953 7.17700195 C-11.90529064 3.25514427 -6.65929904 0.08979191 0 0 Z " fill="#ffffff" transform="translate(178.14501953125,249.822998046875)"/>
<path d="M0 0 C2.56312473 0.0160545 5.12466794 0.00011196 7.68774414 -0.01904297 C20.47297391 -0.03816252 29.90358064 0.65511813 39.49829102 9.91845703 C45.29845825 16.63053356 46.75334809 24.32073843 46.76872253 33.02534485 C46.77512001 34.67158844 46.77512001 34.67158844 46.78164673 36.35108948 C46.78096695 38.13494301 46.78096695 38.13494301 46.78027344 39.95483398 C46.78363205 41.21897125 46.78699066 42.48310852 46.79045105 43.78555298 C46.7992583 47.24230817 46.80162779 50.69903859 46.80226684 54.15580392 C46.80297925 56.31912952 46.80511721 58.48244889 46.80776405 60.64577293 C46.81700697 68.20338717 46.8211003 75.76098381 46.8203125 83.31860352 C46.81971214 90.34633836 46.83025845 97.37399635 46.84605616 104.40171176 C46.85916313 110.44948539 46.86449507 116.497234 46.86385709 122.54502171 C46.86360301 126.15079815 46.8664042 129.75650625 46.87703514 133.36226845 C46.88858087 137.38796812 46.88395003 141.41349724 46.87792969 145.43920898 C46.88354919 146.62237198 46.8891687 147.80553497 46.8949585 149.02455139 C46.85425738 159.75616073 45.69852079 169.12926311 37.96313477 177.11767578 C30.41371235 183.89879415 23.36113525 185.53798069 13.40454102 185.59423828 C12.61407883 185.59993835 11.82361664 185.60563843 11.00920105 185.61151123 C9.33915533 185.62093216 7.66909126 185.62748362 5.99902344 185.63134766 C3.47304884 185.64101553 0.94790183 185.67205024 -1.57788086 185.70361328 C-14.40518039 185.7908247 -23.60450638 185.0926597 -33.22827148 175.80126953 C-38.7972936 169.51957548 -40.4802368 163.0194064 -40.50543213 154.72528076 C-40.51399734 153.03061424 -40.51399734 153.03061424 -40.5227356 151.30171204 C-40.52385345 150.07147812 -40.52497131 148.8412442 -40.52612305 147.57373047 C-40.53108795 146.27072495 -40.53605286 144.96771942 -40.54116821 143.62522888 C-40.55425517 140.05685314 -40.56072998 136.48849619 -40.56517887 132.92010021 C-40.56811575 130.68759855 -40.57222172 128.45510195 -40.57668304 126.22260284 C-40.59034857 119.22857429 -40.6000197 112.2345574 -40.60388494 105.24051642 C-40.60836272 97.18377048 -40.62590148 89.12719444 -40.65488553 81.07050014 C-40.67654593 74.8316656 -40.68659155 68.59287872 -40.68792605 62.35400701 C-40.68897102 58.63304046 -40.69481264 54.91223382 -40.71274567 51.19130707 C-40.73238292 47.03612562 -40.72792007 42.88129705 -40.72143555 38.72607422 C-40.73525772 36.89286873 -40.73525772 36.89286873 -40.74935913 35.02262878 C-40.69889121 24.68231665 -38.95170472 16.29525473 -31.64624023 8.57470703 C-22.27913878 -0.32775645 -12.18774557 -0.0908577 0 0 Z " fill="#ffffff" transform="translate(313.364990234375,298.60888671875)"/>
<path d="M0 0 C3.62011046 2.33296007 5.89022378 4.96794755 7.8125 8.8125 C8.05078125 10.984375 8.05078125 10.984375 8.125 13.5625 C8.16238281 14.40296875 8.19976562 15.2434375 8.23828125 16.109375 C7.35991457 21.68579468 3.12370065 25.7522758 -0.73928833 29.63171387 C-1.64747818 30.54843369 -2.55566803 31.4651535 -3.49137878 32.40965271 C-4.49040076 33.40797579 -5.48953475 34.4061868 -6.48876953 35.40429688 C-7.54741076 36.46892871 -8.60564282 37.53396754 -9.66349792 38.59938049 C-12.52881268 41.48231016 -15.40053578 44.35877188 -18.27403116 47.2335453 C-20.072298 49.03323707 -21.86913175 50.83434694 -23.66546249 52.63597107 C-29.94184118 58.93083649 -36.2233492 65.22053026 -42.50976562 71.50537109 C-48.3537486 77.34815367 -54.1864959 83.20198695 -60.01405442 89.06114721 C-65.0304308 94.10374679 -70.05456158 99.13853178 -75.08470428 104.16739893 C-78.08318426 107.16537097 -81.07853322 110.16630958 -84.06610489 113.17515564 C-86.87915353 116.00768815 -89.70180736 118.8302959 -92.53183937 121.64585686 C-93.56317331 122.67511401 -94.59116848 123.70773047 -95.61535835 124.74409676 C-106.82554135 136.07877089 -117.49574353 142.92616937 -133.625 143.25 C-134.64412476 143.28359619 -134.64412476 143.28359619 -135.68383789 143.31787109 C-147.44096591 143.26498002 -158.3769089 136.51697082 -168.75 131.5625 C-170.23737387 130.85688129 -171.72500946 130.15181401 -173.21289062 129.44726562 C-176.30852655 127.98076183 -179.40302638 126.51190254 -182.49658203 125.04101562 C-193.53193141 119.795778 -204.5839253 114.58586902 -215.65316772 109.41255188 C-219.45089415 107.63532723 -223.23217148 105.82773277 -227.00390625 103.99609375 C-228.58559692 103.24667659 -230.1675905 102.49789815 -231.75 101.75 C-232.40291016 101.42128906 -233.05582031 101.09257812 -233.72851562 100.75390625 C-238.76632956 98.41970128 -242.96336274 98.17259949 -248.1875 99.8125 C-255.03080195 104.58662276 -260.74759473 111.28530217 -266.57568359 117.21411133 C-267.59481862 118.24665414 -268.61425164 119.2789029 -269.63395691 120.31088257 C-271.81485691 122.51849152 -273.99445358 124.72737636 -276.17325974 126.93705177 C-279.62366843 130.43472155 -283.08191587 133.92456942 -286.54214478 137.41252136 C-287.12820917 138.00332499 -287.71427356 138.59412861 -288.31809747 139.20283538 C-289.51563116 140.40996865 -290.71319577 141.61707124 -291.91079068 142.82414377 C-299.95605068 150.93312389 -307.99728372 159.04584049 -316.01171875 167.18530273 C-321.43398263 172.69204176 -326.87036281 178.18439889 -332.32351744 183.66055506 C-335.20284059 186.55312772 -338.07456272 189.45242097 -340.92914963 192.36942482 C-343.61245767 195.11114283 -346.31409049 197.83339247 -349.03061867 200.54218674 C-350.02039499 201.53574273 -351.00338336 202.53611779 -351.97869301 203.54387856 C-357.80640468 209.55634233 -362.52380281 213.67655102 -371.1875 213.8125 C-375.80856457 212.94060102 -378.78192714 211.02887437 -382.1875 207.8125 C-384.02256036 204.80967395 -384.50792742 202.44105954 -384.5625 198.9375 C-384.59085937 198.11507812 -384.61921875 197.29265625 -384.6484375 196.4453125 C-383.67767548 190.90045146 -379.45404241 186.82788504 -375.5977478 182.95532227 C-374.2228418 181.56762131 -374.2228418 181.56762131 -372.82015991 180.15188599 C-371.81169275 179.14411771 -370.80311357 178.13646152 -369.79443359 177.12890625 C-368.72594023 176.0544224 -367.65785606 174.97953149 -366.59014893 173.90426636 C-363.69797616 170.99447751 -360.79939364 168.09115748 -357.89903975 165.1895256 C-356.08402193 163.37308293 -354.27043711 161.55522211 -352.4573555 159.73684692 C-346.12262234 153.38362667 -339.78275927 147.03557826 -333.43798828 140.69238281 C-327.53947408 134.79506903 -321.65219485 128.88670353 -315.77010477 122.97301197 C-310.70701905 117.88370432 -305.63617995 112.80220969 -300.55932868 107.72663403 C-297.53290331 104.70071664 -294.50960922 101.67183089 -291.49409103 98.63504028 C-288.65477697 95.77624449 -285.8058591 92.92736913 -282.94956207 90.08554459 C-281.90855269 89.04661224 -280.87088322 88.00431964 -279.83701706 86.95827866 C-268.73595047 75.73510036 -258.26704035 68.67497173 -242.3125 68.375 C-241.58160156 68.35260254 -240.85070312 68.33020508 -240.09765625 68.30712891 C-228.12298718 68.35728735 -217.19029344 75.01622812 -206.625 80.0625 C-205.13762613 80.76811871 -203.64999054 81.47318599 -202.16210938 82.17773438 C-199.06647345 83.64423817 -195.97197362 85.11309746 -192.87841797 86.58398438 C-181.84306859 91.829222 -170.7910747 97.03913098 -159.72183228 102.21244812 C-155.92410585 103.98967277 -152.14282852 105.79726723 -148.37109375 107.62890625 C-146.78940308 108.37832341 -145.2074095 109.12710185 -143.625 109.875 C-142.97208984 110.20371094 -142.31917969 110.53242188 -141.64648438 110.87109375 C-136.59546637 113.21141665 -132.39629798 113.63378718 -127.1875 111.8125 C-124.83023873 110.0852627 -124.83023873 110.0852627 -122.54743958 107.88169861 C-121.67132334 107.06611921 -120.7952071 106.25053982 -119.89254189 105.4102459 C-115.45775017 101.15136102 -111.09616851 96.82660176 -106.76831055 92.45922852 C-105.77028004 91.45598867 -104.77199659 90.4530004 -103.77348328 89.45024109 C-101.64529722 87.31221192 -99.5186061 85.17271129 -97.39304161 83.03207588 C-94.02987059 79.64561945 -90.66163032 76.26423504 -87.29243469 72.8837738 C-77.72010685 63.27818589 -68.15217693 53.66824553 -58.59448242 44.0480957 C-53.29941459 38.71851215 -47.99900942 33.39429798 -42.69260055 28.0760054 C-39.34279187 24.71810987 -35.99965192 21.35375735 -32.66128671 17.9844867 C-30.58666793 15.89386137 -28.50578282 13.80956311 -26.42305183 11.72702217 C-25.0008091 10.30120534 -23.58607061 8.86791539 -22.17156982 7.43441772 C-20.89557167 6.16243782 -20.89557167 6.16243782 -19.59379578 4.86476135 C-18.85920985 4.12611123 -18.12462393 3.38746111 -17.36777782 2.62642765 C-12.10940574 -1.74838477 -6.37843175 -2.37627849 0 0 Z " fill="#ffffff" transform="translate(444.1875,29.1875)"/>
<path d="M0 0 C2.82302576 0.00631984 5.64184619 -0.04068724 8.46435547 -0.09130859 C19.95312233 -0.17131164 28.63669196 0.64491487 37.86035156 8.18432617 C45.75551034 16.24933808 46.55817694 27.36118989 46.45654297 38.04150391 C46.4579982 39.28959335 46.45945343 40.5376828 46.46095276 41.82359314 C46.45888266 45.11282906 46.43800261 48.40127696 46.40997314 51.69036865 C46.397948 53.69405084 46.39959009 55.69722655 46.40649414 57.70092773 C46.41915063 61.58551581 46.41037027 65.46943927 46.39404297 69.35400391 C46.39697861 70.53656265 46.39991425 71.7191214 46.40293884 72.93751526 C46.27445572 84.33252453 44.38461496 92.1939394 36.37060547 100.49462891 C29.25821779 106.80010064 21.97491525 107.78225528 12.69482422 107.83447266 C11.90199036 107.84017273 11.10915649 107.8458728 10.29229736 107.85174561 C8.61805544 107.86116556 6.94379522 107.8677176 5.26953125 107.87158203 C2.73257351 107.88126323 0.19643509 107.91230441 -2.34033203 107.94384766 C-13.80508582 108.01878762 -23.88740704 107.66078305 -32.63330078 99.06494141 C-40.25939024 90.70988751 -40.51498515 83.05118073 -40.50830078 72.08056641 C-40.51541442 70.6572083 -40.52311515 69.23385303 -40.53137207 67.8105011 C-40.54477709 64.83411686 -40.54640434 61.85799766 -40.54052734 58.8815918 C-40.5346425 55.09215607 -40.56518871 51.30400656 -40.60564423 47.51481915 C-40.6316663 44.57627166 -40.63438554 41.63802767 -40.63075256 38.69938087 C-40.6324311 37.30369657 -40.64194996 35.90799629 -40.65989685 34.51242638 C-40.78396924 23.67053553 -39.04288334 16.01413681 -31.85205078 7.75634766 C-22.66897099 -0.48997843 -11.67071105 -0.05462111 0 0 Z " fill="#ffffff" transform="translate(72.03955078125,376.36865234375)"/>
</svg>