<svg width="24" height="26" viewBox="0 0 24 26" fill="none" xmlns="http://www.w3.org/2000/svg">
<path d="M10.08 1.0224C11.3472 1.0224 12.6144 1.0224 13.92 1.0224C14.2368 2.03458 14.5536 3.04675 14.88 4.0896C16.6044 3.73867 16.6044 3.73867 18.27 3.16305C19.2 3.0672 19.2 3.0672 20.31 3.92985C21.12 5.112 21.12 5.112 21.03 6.10245C20.9013 6.45039 20.7726 6.79832 20.64 7.1568C20.4765 8.00805 20.3157 8.8599 20.16 9.7128C21.1104 10.0502 22.0608 10.3876 23.04 10.7352C23.04 12.0848 23.04 13.4343 23.04 14.8248C22.5846 14.9513 22.1292 15.0778 21.66 15.2082C20.1183 15.6865 20.1183 15.6865 19.5 16.9335C19.401 17.2498 19.302 17.5661 19.2 17.892C18.7248 17.7233 18.2496 17.5546 17.76 17.3808C18.0768 16.1999 18.3936 15.0191 18.72 13.8024C19.6704 13.8024 20.6208 13.8024 21.6 13.8024C21.6 13.1276 21.6 12.4528 21.6 11.7576C20.6496 11.7576 19.6992 11.7576 18.72 11.7576C17.6566 8.54884 17.6566 8.54884 18.18 6.67755C18.3582 6.32961 18.5364 5.98168 18.72 5.6232C18.2151 5.81298 17.7102 6.00277 17.19 6.1983C15.36 6.6456 15.36 6.6456 13.98 6.39C12.96 5.6232 12.96 5.6232 12.57 4.0257C12.5403 3.5407 12.5106 3.0557 12.48 2.556C12.1632 2.556 11.8464 2.556 11.52 2.556C11.3616 3.56818 11.2032 4.58035 11.04 5.6232C8.02707 6.7557 8.02707 6.7557 6.26999 6.1983C5.94329 6.00852 5.61659 5.81873 5.27999 5.6232C5.54729 6.42978 5.54729 6.42978 5.81999 7.25265C6.23999 9.2016 6.23999 9.2016 5.99999 10.6713C5.27999 11.7576 5.27999 11.7576 3.77999 12.1729C3.32459 12.2046 2.86919 12.2362 2.39999 12.2688C2.39999 12.6062 2.39999 12.9436 2.39999 13.2912C3.35039 13.4599 4.30079 13.6286 5.27999 13.8024C6.34338 17.0112 6.34338 17.0112 5.81999 18.8825C5.55269 19.4044 5.55269 19.4044 5.27999 19.9368C5.78489 19.7365 6.28979 19.5361 6.80999 19.3298C8.63999 18.9144 8.63999 18.9144 10.05 19.6173C10.3767 19.8914 10.7034 20.1656 11.04 20.448C10.8816 20.7854 10.7232 21.1228 10.56 21.4704C10.1145 21.4493 9.66899 21.4282 9.20999 21.4065C7.6041 21.3317 7.6041 21.3317 6.23999 22.4928C5.04708 22.3737 4.42014 22.0588 3.44999 21.3106C2.87999 20.448 2.87999 20.448 2.99999 19.4895C3.11879 19.131 3.23759 18.7725 3.35999 18.4032C3.52348 17.552 3.68427 16.7001 3.83999 15.8472C2.88959 15.5098 1.93919 15.1724 0.959991 14.8248C0.959991 13.4752 0.959991 12.1257 0.959991 10.7352C1.91039 10.3978 2.86079 10.0604 3.83999 9.7128C3.51048 7.87634 3.51048 7.87634 2.96999 6.10245C2.87999 5.112 2.87999 5.112 3.68999 3.92985C4.79999 3.0672 4.79999 3.0672 5.72999 3.16305C6.05669 3.30012 6.38339 3.43718 6.71999 3.5784C7.51929 3.75252 8.31915 3.92376 9.11999 4.0896C9.43679 3.07742 9.75359 2.06525 10.08 1.0224Z" fill="white"/>
<path d="M22.08 17.3808C22.7136 17.3808 23.3472 17.3808 24 17.3808C24 19.4256 24 19.4256 22.89 20.6716C22.4643 21.1039 22.0386 21.5362 21.6 21.9816C21.2287 22.6933 21.2287 22.6933 20.85 23.4193C20.6223 23.7884 20.3946 24.1574 20.16 24.5376C19.5264 24.5376 18.8928 24.5376 18.24 24.5376C17.5275 23.7548 17.5275 23.7548 16.92 22.7484C16.7146 22.4163 16.5091 22.0842 16.2975 21.742C16.1465 21.4837 15.9955 21.2253 15.84 20.9592C14.3414 21.6283 14.3414 21.6283 13.44 23.004C12.8064 23.004 12.1728 23.004 11.52 23.004C11.52 22.3292 11.52 21.6544 11.52 20.9592C12.69 19.8729 12.69 19.8729 13.92 18.9144C14.0784 18.577 14.2368 18.2396 14.4 17.892C15.0336 17.892 15.6672 17.892 16.32 17.892C16.9987 18.6568 16.9987 18.6568 17.58 19.6492C18.3954 21.0818 18.3954 21.0818 19.68 21.9816C19.8087 21.6969 19.9374 21.4122 20.07 21.1189C20.2581 20.7288 20.4462 20.3387 20.64 19.9368C20.8578 19.4729 21.0756 19.009 21.3 18.531C21.5574 18.1514 21.8148 17.7719 22.08 17.3808Z" fill="white"/>
<path d="M13.92 8.6904C15.12 9.4572 15.12 9.4572 15.84 10.7352C16.2197 12.7907 16.1383 14.2952 15.12 16.1028C13.4228 17.1873 12.0101 17.274 10.08 16.8696C8.88001 16.1028 8.88001 16.1028 8.16001 14.8248C7.78032 12.7693 7.86167 11.2647 8.88001 9.4572C10.5772 8.37267 11.9899 8.28603 13.92 8.6904ZM9.60001 11.2464C9.44001 12.78 9.44001 12.78 9.60001 14.3136C10.5048 15.4973 10.5048 15.4973 12 15.4638C13.4952 15.4973 13.4952 15.4973 14.4 14.3136C14.56 12.78 14.56 12.78 14.4 11.2464C13.4952 10.0626 13.4952 10.0626 12 10.0962C10.5048 10.0626 10.5048 10.0626 9.60001 11.2464Z" fill="white"/>
</svg>
