<svg version="1.1" xmlns="http://www.w3.org/2000/svg" width="512px" height="512px" transform="rotate(0) scale(1, 1)">
<path d="M0 0 C4.44364916 3.88420152 8.74406316 7.91206066 13 12 C13.8971875 12.8559375 14.794375 13.711875 15.71875 14.59375 C21.63628347 20.36517153 26.9138642 26.48902473 32 33 C33.05960937 34.33417969 33.05960937 34.33417969 34.140625 35.6953125 C54.39192602 61.84717245 68.49775304 91.65667644 76.375 123.75 C76.71494995 125.12925659 76.71494995 125.12925659 77.06176758 126.53637695 C81.14963041 144.31296889 82.55444411 161.92490117 82.4375 180.125 C82.43243942 181.66321915 82.43243942 181.66321915 82.42727661 183.23251343 C82.35023037 199.4505118 81.60221654 215.12573889 78 231 C77.6299585 232.63437012 77.6299585 232.63437012 77.25244141 234.30175781 C72.40176812 254.99677275 65.00173512 274.27554808 55 293 C54.64824707 293.66483398 54.29649414 294.32966797 53.93408203 295.01464844 C43.82206041 314.00252544 30.76537773 330.39679698 16 346 C15.12472656 346.92941406 14.24945313 347.85882813 13.34765625 348.81640625 C6.4246642 355.96304856 -1.03304676 362.06490174 -9 368 C-9.8647998 368.64799561 -9.8647998 368.64799561 -10.74707031 369.30908203 C-59.81324882 405.86629408 -121.97442534 421.86662534 -182.6484375 413.40844727 C-243.84764605 403.91983031 -300.04940309 372.25281179 -337 322 C-337.7115625 321.071875 -338.423125 320.14375 -339.15625 319.1875 C-343.9090611 312.79847524 -346.36888246 307.64060449 -345.9375 299.5 C-345.00827984 293.23316636 -341.74674652 288.36263354 -337.125 284.125 C-331.17992561 280.08234942 -325.75458894 279.46624361 -318.75390625 280.37109375 C-308.63849497 282.68113803 -303.76368263 290.96664246 -298.05078125 298.88671875 C-293.82206321 304.69566317 -288.97656676 309.83348794 -284 315 C-283.31035156 315.7528125 -282.62070312 316.505625 -281.91015625 317.28125 C-248.87879366 352.27801037 -199.12913805 369.46108937 -152 371 C-145.29702674 371.06696994 -138.66686129 370.67211738 -132 370 C-131.20883789 369.92152832 -130.41767578 369.84305664 -129.60253906 369.76220703 C-88.91152494 365.39597042 -50.4418588 347.36142361 -21 319 C-20.46665039 318.49243164 -19.93330078 317.98486328 -19.38378906 317.46191406 C-6.30483787 304.96651897 3.85309619 291.58155823 13 276 C13.38542969 275.35111816 13.77085937 274.70223633 14.16796875 274.03369141 C39.12656816 231.47416843 43.55448548 180.07961249 31.74609375 132.80615234 C22.23478602 97.03292884 1.18208047 61.32455618 -28 38 C-28.92941406 37.24460937 -29.85882813 36.48921875 -30.81640625 35.7109375 C-39.10478776 29.08673299 -47.86021396 23.37607943 -57 18 C-57.60537598 17.64164062 -58.21075195 17.28328125 -58.83447266 16.9140625 C-84.35385209 2.00732645 -114.54836102 -5.89513195 -144 -7 C-145.06863281 -7.04125 -146.13726562 -7.0825 -147.23828125 -7.125 C-198.81596842 -8.09473325 -246.98889045 12.75387111 -284 48 C-284.70640625 48.65355469 -285.4128125 49.30710937 -286.140625 49.98046875 C-307.25862325 70.11124351 -321.89875775 97.62287615 -331 125 C-331.28101563 125.83982422 -331.56203125 126.67964844 -331.8515625 127.54492188 C-332.57020009 129.69579748 -333.28629128 131.84748486 -334 134 C-333.07775635 133.37955811 -332.1555127 132.75911621 -331.20532227 132.11987305 C-327.75136713 129.80024087 -324.28832635 127.49449076 -320.82250977 125.19262695 C-319.32947235 124.19829016 -317.83885733 123.20030531 -316.35083008 122.19848633 C-314.19994065 120.75134081 -312.04040953 119.31794795 -309.87890625 117.88671875 C-309.22539688 117.44285324 -308.57188751 116.99898773 -307.89857483 116.54167175 C-301.18823928 112.13571243 -294.32618717 109.06737342 -286.1953125 110.44140625 C-278.78379177 112.32725583 -275.156659 115.37084799 -271.12890625 121.87890625 C-268.49829128 126.8215496 -268.54133443 131.52937062 -269 137 C-271.41722726 144.63334925 -275.32577151 149.0356575 -281.87109375 153.30078125 C-282.94270752 154.005979 -284.01432129 154.71117676 -285.1184082 155.43774414 C-285.72850739 155.83913605 -286.33860657 156.24052795 -286.9671936 156.65408325 C-290.97822066 159.30977565 -294.95939473 162.00996201 -298.9453125 164.703125 C-300.78383274 165.94404217 -302.62237483 167.18492696 -304.4609375 168.42578125 C-307.28397147 170.33169486 -310.10689421 172.23777292 -312.9296875 174.14404297 C-313.85007812 174.76553223 -314.77046875 175.38702148 -315.71875 176.02734375 C-316.63557556 176.6464563 -317.55240112 177.26556885 -318.49700928 177.90344238 C-321.23334112 179.74911887 -323.97256615 181.59044463 -326.71191406 183.43164062 C-330.17722308 185.76277069 -333.6253718 188.11636146 -337.06152344 190.49023438 C-337.86298798 191.03838806 -338.66445251 191.58654175 -339.49020386 192.15130615 C-340.97338268 193.16577614 -342.45124576 194.18808865 -343.92214966 195.22027588 C-350.97226272 200.0128905 -358.00756823 202.8998041 -366.5859375 201.625 C-380.77193628 197.95224951 -388.27701786 180.68557831 -395.6875 169.3125 C-397.90830704 165.91545507 -400.13174838 162.52013837 -402.35546875 159.125 C-403.18961807 157.85037651 -403.18961807 157.85037651 -404.0406189 156.55000305 C-407.68137421 150.99266115 -411.3519361 145.45633369 -415.05078125 139.9375 C-415.51828293 139.23956833 -415.98578461 138.54163666 -416.467453 137.82255554 C-418.24355528 135.17263571 -420.02057097 132.52337056 -421.80429077 129.87857056 C-423.00776732 128.09410332 -424.20728508 126.30703149 -425.40625 124.51953125 C-426.07978516 123.52026611 -426.75332031 122.52100098 -427.44726562 121.49145508 C-431.28016075 115.34134584 -430.98305928 107.04169634 -430 100 C-427.96216016 94.57061242 -424.32372346 90.1819768 -419.04296875 87.65234375 C-412.46675177 85.55248097 -405.55723321 85.14566425 -399.09765625 87.77734375 C-388.61277808 93.88864146 -382.29271882 108.00915637 -376 118 C-375.63201294 116.86292603 -375.63201294 116.86292603 -375.2565918 115.70288086 C-359.92912998 68.76496213 -334.89095051 25.38799191 -295 -5 C-294.43168457 -5.4340918 -293.86336914 -5.86818359 -293.27783203 -6.31542969 C-258.99076007 -32.37032245 -219.79359556 -48.72460765 -177 -54 C-175.90631104 -54.14139404 -175.90631104 -54.14139404 -174.79052734 -54.28564453 C-112.40612601 -61.5221833 -47.60499843 -40.55760557 0 0 Z " fill="#ffffff" transform="translate(430,76)"/>
<path d="M0 0 C4.26037481 4.51515941 6.93666772 10.38855314 6.99602699 16.60441303 C6.91062692 18.33090061 6.79715257 20.05616485 6.6597538 21.77929401 C6.55353687 23.75564021 6.44786993 25.73201602 6.34267616 27.70841694 C6.24556217 29.26122396 6.24556217 29.26122396 6.14648628 30.84540081 C5.81536598 36.4288421 5.62510907 42.01701726 5.43221474 47.60668659 C5.39197937 48.77111884 5.351744 49.93555109 5.31028938 51.13526917 C1.9233652 95.14832362 1.9233652 95.14832362 18.65001869 133.90263081 C25.65348565 140.97676737 33.65159284 146.90777069 42.26033974 151.87817097 C46.31205476 154.29624655 49.10218067 157.15639841 52.05517006 160.81358051 C53.6787417 162.78845453 55.41609851 164.54469061 57.25985146 166.31371784 C58.15317177 167.17513386 58.15317177 167.17513386 59.06453896 168.05395222 C60.2777956 169.21337388 61.49666352 170.3669493 62.72078896 171.51488972 C67.37565308 176.03254715 69.96921271 179.91889797 71.08797646 186.45434284 C71.17370358 193.51611441 69.79479582 198.93690699 65.61922646 204.71606159 C60.73120061 209.36877766 56.07205187 210.88065282 49.43172646 211.02856159 C47.80170692 211.08463581 47.80170692 211.08463581 46.13875771 211.14184284 C37.11039429 210.0496213 31.63317327 204.29057266 25.55282021 198.07543659 C24.29623352 196.81391773 24.29623352 196.81391773 23.01426125 195.52691364 C20.3522347 192.84921088 17.70468616 190.15766766 15.05672646 187.46606159 C13.2743936 185.67222773 11.49119841 183.87925024 9.70711708 182.08715534 C7.98824361 180.35485059 6.27011968 178.62180172 4.55282021 176.88793659 C3.76096825 176.0886977 2.96911629 175.28945881 2.15326881 174.46600056 C-1.98031246 170.26209673 -5.95036427 165.97357082 -9.80116844 161.50988483 C-12.0124535 158.99871636 -14.37261794 156.66462816 -16.77139854 154.33324909 C-17.737824 153.38431503 -18.70396175 152.43508789 -19.66983604 151.48559284 C-21.15654254 150.02992097 -22.64550287 148.57678511 -24.13956261 147.12865925 C-25.60705931 145.70370561 -27.06475048 144.26927978 -28.52139854 142.83324909 C-29.38281456 141.99390827 -30.24423058 141.15456745 -31.13175011 140.28979206 C-36.75519246 133.85445453 -36.82239568 128.15706443 -36.80069542 119.96264362 C-36.80916496 118.7846822 -36.81763451 117.60672077 -36.8263607 116.39306355 C-36.84570847 113.17387308 -36.85151077 109.95503929 -36.84961319 106.73580122 C-36.84949317 104.0421355 -36.85807026 101.34852348 -36.86639071 98.65487278 C-36.88560111 92.2961633 -36.88851741 85.93758509 -36.88175011 79.57885456 C-36.87511221 73.03373746 -36.89796823 66.48918432 -36.93506384 59.94418156 C-36.96582132 54.31167753 -36.97711433 48.67935434 -36.97322702 43.04676807 C-36.97116556 39.68847674 -36.97654401 36.33062435 -37.00111961 32.97241306 C-37.02329201 29.22391198 -37.01361355 25.47676569 -36.99600792 21.72826862 C-37.00927116 20.625667 -37.02253441 19.52306538 -37.03619957 18.38705158 C-36.96176612 11.55482374 -35.85077302 6.98808845 -31.38077354 1.71606159 C-22.78883854 -6.24719524 -9.44588484 -8.05428836 0 0 Z " fill="#ffffff" transform="translate(292.3807735443115,131.28393840789795)"/>
</svg>