<?xml version="1.0" encoding="UTF-8"?>
<svg version="1.1" xmlns="http://www.w3.org/2000/svg" width="512" height="512">
<path d="M0 0 C1.03511719 0.51175781 2.07023438 1.02351563 3.13671875 1.55078125 C26.75687337 14.25962279 43.0526571 36.76702823 51 62 C59.03383459 90.47791171 54.87425527 119.12711175 40.5625 144.7265625 C37.5288645 149.92416104 34.00772708 154.51863245 30 159 C29.236875 160.010625 28.47375 161.02125 27.6875 162.0625 C23.55593212 166.57839978 18.83033715 170.25763567 14 174 C12.80697266 174.93392578 12.80697266 174.93392578 11.58984375 175.88671875 C-5.52996157 188.60510501 -26.62532318 194.42034276 -47.75 194.3125 C-48.89307617 194.30758545 -50.03615234 194.3026709 -51.21386719 194.29760742 C-74.05653824 193.98169814 -96.63067533 186.07282178 -114 171 C-114.78503906 170.35804688 -115.57007813 169.71609375 -116.37890625 169.0546875 C-133.05075553 154.91361972 -143.67314298 136.03884704 -149 115 C-149.24492187 114.05640625 -149.48984375 113.1128125 -149.7421875 112.140625 C-155.31455063 85.72915046 -149.1667976 57.65007759 -135 35 C-119.40519315 12.10138071 -97.1009374 -3.23210913 -70.25 -9.875 C-45.78500554 -14.20761302 -22.04464889 -11.09176117 0 0 Z M-111 39 C-124.97956425 56.22586474 -131.14662864 76.98911017 -129.74609375 98.98828125 C-127.21976246 121.27006801 -116.30597135 141.66944515 -98.76953125 155.796875 C-81.19246258 168.75745418 -59.53670056 175.6685881 -37.68359375 172.68359375 C-28.24649188 171.06085336 -19.44724799 168.59591912 -11 164 C-10.02804687 163.49726563 -9.05609375 162.99453125 -8.0546875 162.4765625 C10.5632527 152.33430863 23.89943279 135.02341449 30.38671875 114.9375 C36.48590115 93.69534546 33.8520533 71.07727958 23.265625 51.79296875 C10.70257871 30.15966706 -8.00561383 17.58674142 -31.7890625 11.2578125 C-61.28035841 4.75368984 -91.36195912 16.71119695 -111 39 Z " fill="#dc143c" transform="translate(286,43)"/>
<path d="M0 0 C2.68408645 4.02612967 2.80610406 7.26816918 2 12 C0.07643127 15.57339883 -2.0882254 17.69607513 -6 19 C-8.07295863 19.24047114 -10.15093962 19.4385172 -12.23046875 19.61328125 C-13.49560303 19.72438232 -14.7607373 19.8354834 -16.06420898 19.94995117 C-16.73588104 20.0084726 -17.4075531 20.06699402 -18.09957886 20.12728882 C-65.42915734 24.32570751 -109.72259379 36.9828723 -152.375 58 C-153.13683594 58.37382812 -153.89867187 58.74765625 -154.68359375 59.1328125 C-158.49769444 60.84773009 -158.49769444 60.84773009 -161 64 C-161.11898577 66.56673517 -161.17831915 69.10719849 -161.19287109 71.67504883 C-161.20104858 72.4671022 -161.20922607 73.25915558 -161.21765137 74.07521057 C-161.24251118 76.7024764 -161.25902265 79.32968819 -161.2734375 81.95703125 C-161.27876118 82.85362646 -161.28408485 83.75022167 -161.28956985 84.67398643 C-161.31630374 89.41944906 -161.33567803 94.16488535 -161.35009766 98.91040039 C-161.36674802 103.81342567 -161.41152808 108.71577911 -161.4624691 113.6185503 C-161.49611507 117.3872302 -161.50767214 121.15575009 -161.51332474 124.92456627 C-161.52004436 126.73190128 -161.53528494 128.5392255 -161.55921555 130.34641457 C-161.59081487 132.87709017 -161.59091237 135.40594672 -161.58349609 137.93676758 C-161.59990143 138.68240967 -161.61630676 139.42805176 -161.63320923 140.19628906 C-161.58849869 143.92612785 -161.20130626 145.74754005 -158.85296726 148.69261265 C-155.47849328 151.42177771 -154.02589994 151.62347656 -149.74452209 151.61904907 C-148.48419662 151.63000107 -147.22387115 151.64095306 -145.925354 151.65223694 C-144.5362507 151.63920133 -143.1471516 151.62571265 -141.75805664 151.61181641 C-140.28923365 151.61535886 -138.8204146 151.62113791 -137.35160828 151.62898254 C-134.19267108 151.64115208 -131.03427411 151.63770596 -127.87535286 151.62215042 C-122.8786155 151.59782139 -117.88235062 151.60933363 -112.88560486 151.62582397 C-104.08103865 151.65031307 -95.27668751 151.64452043 -86.47210693 151.63201904 C-73.22008839 151.61343517 -59.96811098 151.6183014 -46.71612257 151.65205324 C-41.75094694 151.66355779 -36.78611558 151.65914111 -31.82095921 151.64203286 C-28.72973732 151.63412549 -25.63861527 151.63839249 -22.54739571 151.64574242 C-21.11634148 151.64655147 -19.68527347 151.64221763 -18.25425339 151.63229942 C-16.2970318 151.61939295 -14.33970838 151.62668672 -12.38246155 151.63491821 C-11.28833482 151.63303308 -10.19420809 151.63114796 -9.066926 151.6292057 C-5.46552664 152.06461834 -3.08689763 153.11499528 0 155 C2.8199641 159.22994616 2.79231188 163.03220448 2 168 C-0.52676039 171.34625024 -2.03933542 172.67977847 -6 174 C-8.00684039 174.09770738 -10.01680609 174.13499748 -12.02601624 174.14044189 C-13.28622589 174.14615204 -14.54643555 174.15186218 -15.84483337 174.15774536 C-17.24429311 174.15899074 -18.64375297 174.16011583 -20.04321289 174.16113281 C-21.51509729 174.16576159 -22.9869805 174.17078633 -24.4588623 174.17617798 C-28.46129411 174.18930296 -32.46370914 174.19574776 -36.46615911 174.20018864 C-38.96901821 174.20312074 -41.47187274 174.20722593 -43.97472954 174.21169281 C-51.81185194 174.22537138 -59.64896388 174.23503484 -67.4860974 174.2388947 C-76.52030428 174.24336886 -85.55435937 174.26088531 -94.58852011 174.2898953 C-101.57806647 174.31155676 -108.56757028 174.32160145 -115.55714983 174.32293582 C-119.7280962 174.32398116 -123.89889996 174.32983031 -128.06981087 174.34775543 C-131.99901104 174.36431226 -135.9279626 174.36635499 -139.85718536 174.35761642 C-141.29300798 174.35684996 -142.72884437 174.36113685 -144.1646328 174.37107468 C-156.08325214 174.44867587 -166.06418889 173.47460795 -175 165 C-185.08214221 154.36916978 -184.45171527 141.71450537 -184.3984375 127.96484375 C-184.40046209 126.11739487 -184.40337672 124.26994678 -184.40713501 122.42250061 C-184.41153914 118.56536186 -184.40518846 114.70843261 -184.39111328 110.85131836 C-184.37401051 105.92663645 -184.38388168 101.00244475 -184.40183067 96.07778072 C-184.41271006 92.26774959 -184.40920337 88.45783327 -184.4014473 84.64779854 C-184.39945739 82.83265689 -184.40186169 81.01750456 -184.40888596 79.20237541 C-184.4798475 55.71925951 -184.4798475 55.71925951 -175.45922852 46.40991211 C-169.78187248 41.15209125 -163.60343599 37.94179439 -156.625 34.6875 C-155.44180176 34.12844971 -154.25860352 33.56939941 -153.03955078 32.9934082 C-121.07909961 18.04184625 -33.69409768 -21.15675901 0 0 Z " fill="#dc143c" transform="translate(225,294)"/>
<path d="M0 0 C1.70635117 -0.00642769 1.70635117 -0.00642769 3.44717407 -0.01298523 C5.84238014 -0.01870252 8.23760357 -0.01924809 10.6328125 -0.01489258 C14.27113859 -0.01173431 17.90864926 -0.03521995 21.546875 -0.06054688 C23.88541565 -0.06282049 26.22395847 -0.06352307 28.5625 -0.0625 C30.17395401 -0.07631462 30.17395401 -0.07631462 31.81796265 -0.09040833 C46.91417476 0.00077606 58.79393643 4.99332438 69.8828125 15.1171875 C72.41905637 17.84364966 73.80890626 19.76927497 74.06640625 23.51953125 C73.69174965 27.49770317 73.43392332 29.68918029 70.7890625 32.80078125 C67.31102419 34.61540993 64.84380372 35.23183842 60.9140625 35.30078125 C57.09427441 33.94793964 54.45457477 31.96043141 51.4765625 29.30078125 C43.80034434 22.50184517 34.82482752 22.14665809 25.05078125 22.1328125 C24.21875687 22.1294841 23.38673248 22.1261557 22.52949524 22.12272644 C20.77723743 22.11768818 19.02497012 22.11531715 17.27270508 22.11547852 C14.61979015 22.11329624 11.96729447 22.09511898 9.31445312 22.07617188 C-8.37756676 21.90817314 -8.37756676 21.90817314 -24.0859375 29.30078125 C-33.50975601 39.08783045 -33.23588119 50.70576517 -33.23120117 63.51293945 C-33.23419716 64.84748427 -33.2376007 66.18202822 -33.24137878 67.51657104 C-33.2501784 71.12622165 -33.2525552 74.73584852 -33.25319457 78.34550881 C-33.25390739 80.60516558 -33.25604609 82.86481639 -33.25869179 85.12447166 C-33.26793197 93.0204036 -33.27202835 100.9163187 -33.27124023 108.81225586 C-33.27063985 116.15184275 -33.2811873 123.49135605 -33.2969839 130.83092433 C-33.31009477 137.14964431 -33.31542264 143.46834033 -33.31478482 149.78707379 C-33.31453087 153.55327426 -33.31732497 157.31940927 -33.32796288 161.08559608 C-33.33770375 164.63069168 -33.33768239 168.17566004 -33.33044624 171.72076035 C-33.32891618 173.62722649 -33.33720518 175.53369278 -33.34588623 177.44013977 C-33.30022286 190.02897682 -31.83691675 199.3622748 -22.8359375 208.61328125 C-15.0048928 213.41869504 -7.84647051 214.90658052 1.2578125 214.83203125 C2.30755249 214.83585815 3.35729248 214.83968506 4.43884277 214.84362793 C6.64397143 214.84633301 8.84913295 214.83907105 11.05419922 214.82226562 C14.40535883 214.8008369 17.75437482 214.82211662 21.10546875 214.84765625 C23.26042134 214.84501273 25.41537261 214.83988724 27.5703125 214.83203125 C28.55914429 214.84012817 29.54797607 214.8482251 30.56677246 214.85656738 C39.68129056 214.73533999 47.30692096 212.38415482 54.0390625 206.05078125 C59.14862632 201.74334676 59.14862632 201.74334676 63.2265625 201.61328125 C67.65589126 202.43908831 70.48164654 203.3908933 73.2265625 207.05078125 C74.45396605 211.06773833 74.85745209 214.41400207 72.921875 218.28515625 C66.6155365 227.47744626 56.36157347 233.32871737 45.62513733 235.83512878 C42.77437274 236.32477427 40.10436903 236.44882613 37.21264648 236.4777832 C35.529506 236.49703606 35.529506 236.49703606 33.81236267 236.51667786 C32.60713455 236.52406479 31.40190643 236.53145172 30.16015625 236.5390625 C28.90832047 236.54713425 27.65648468 236.55520599 26.36671448 236.56352234 C23.71636273 236.5773451 21.06613451 236.58836551 18.41577148 236.59594727 C15.71859946 236.60477717 13.02194768 236.62558511 10.32495117 236.6574707 C6.41569639 236.70036109 2.5071178 236.71634841 -1.40234375 236.7265625 C-2.59340225 236.74407059 -3.78446075 236.76157867 -5.01161194 236.77961731 C-18.6797761 236.74466837 -30.51632889 232.30531799 -40.59765625 222.9765625 C-52.59591211 210.34368815 -55.55400913 196.37455737 -55.47412109 179.38110352 C-55.47819538 177.91128146 -55.48354203 176.44146246 -55.49005127 174.97164917 C-55.5036302 171.01079972 -55.49846526 167.05018691 -55.48891401 163.08933377 C-55.48126674 158.92429083 -55.48837713 154.75926684 -55.49307251 150.59422302 C-55.49851601 143.60143433 -55.49137614 136.60874098 -55.47705078 129.6159668 C-55.46073336 121.5582901 -55.46601182 113.50084129 -55.48253 105.44317013 C-55.49619274 98.49757565 -55.49804104 91.55204933 -55.49021399 84.60644573 C-55.48556285 80.47022869 -55.48484133 76.33411837 -55.49482346 72.1979084 C-55.50356071 68.30631982 -55.4973495 64.41502176 -55.48014069 60.5234642 C-55.47621132 59.10461214 -55.47724809 57.68573516 -55.48392868 56.26689339 C-55.54859317 41.12419448 -52.47198415 29.60616351 -43.8984375 17.11328125 C-31.15730873 4.37215248 -17.60386367 -0.01487854 0 0 Z " fill="#dc143c" transform="translate(338.0859375,243.69921875)"/>
<path d="M0 0 C3.02378864 0.65140964 4.20567637 1.49117624 6.44485474 3.58247375 C7.47536957 4.5360527 7.47536957 4.5360527 8.52670288 5.50889587 C9.58809479 6.53181229 9.58809479 6.53181229 10.67092896 7.57539368 C11.36966125 8.24581696 12.06839355 8.91624023 12.78829956 9.60697937 C15.03494481 11.79163306 17.25813622 13.99787159 19.47561646 16.21211243 C20.28080719 17.01397476 21.08599792 17.8158371 21.91558838 18.64199829 C23.60259301 20.32397372 25.28827569 22.00727602 26.97268677 23.69184875 C29.55419275 26.27115042 32.14361599 28.84232682 34.73342896 31.4132843 C36.37714678 33.05407096 38.02039285 34.69533038 39.66311646 36.33711243 C40.43702728 37.10383774 41.21093811 37.87056305 42.00830078 38.66052246 C42.72309601 39.37839432 43.43789124 40.09626617 44.17434692 40.83589172 C44.80307709 41.46319687 45.43180725 42.09050201 46.07958984 42.73681641 C48.77183931 45.8473468 50.07207505 48.51227033 49.89749146 52.65742493 C48.91887183 59.48963974 43.76087728 63.63789182 39.04592896 68.26289368 C38.05883741 69.25538343 37.07293525 70.24905738 36.08816528 71.24385071 C34.02611514 73.31765273 31.95040397 75.37640538 29.86380005 77.42549133 C27.20112063 80.04258703 24.57599363 82.69398172 21.96011353 85.35775757 C19.93266027 87.41423428 17.88639228 89.45113525 15.83407593 91.48277283 C14.85867349 92.45287 13.88909158 93.42885867 12.92575073 94.41093445 C3.87403346 103.59979895 3.87403346 103.59979895 -3.40036011 103.83540344 C-7.00493786 103.34946986 -8.78661605 102.11784868 -11.32907104 99.57539368 C-12.68236003 96.90351542 -13.41596697 94.57585894 -13.32907104 91.57539368 C-11.45441289 86.39354836 -9.44256529 83.20128807 -5.44235229 79.29804993 C-4.50455933 78.37314758 -3.56676636 77.44824524 -2.60055542 76.49531555 C-1.61444513 75.54261607 -0.62811426 74.59014485 0.35842896 73.63789368 C1.35739863 72.65901682 2.35545466 71.67920665 3.35256958 70.69844055 C5.78320775 68.31477124 8.22269799 65.94096784 10.67092896 63.57539368 C9.57956131 63.56952744 8.48819366 63.56366119 7.36375427 63.55761719 C-2.92141826 63.50040396 -13.20637907 63.42764956 -23.49133587 63.33967876 C-28.77894759 63.2949515 -34.06648184 63.25570047 -39.35421753 63.22895813 C-44.45719508 63.20294881 -49.55987488 63.16256299 -54.66266823 63.11220741 C-56.60946766 63.09552269 -58.55631862 63.08401842 -60.50317955 63.07777977 C-63.23021025 63.06815622 -65.95647643 63.04011782 -68.68331909 63.00776672 C-69.89065201 63.00991936 -69.89065201 63.00991936 -71.12237549 63.01211548 C-75.69231405 62.93544331 -78.71845803 62.45135177 -82.32907104 59.57539368 C-85.00812834 55.55680773 -85.02517798 52.29897646 -84.32907104 47.57539368 C-82.53513437 44.70509499 -81.34643828 43.0840773 -78.32907104 41.57539368 C-75.49222659 41.45266756 -72.6783511 41.38964806 -69.84030151 41.37007141 C-68.96218811 41.36017181 -68.08407471 41.35027222 -67.17935181 41.34007263 C-64.26834842 41.30841094 -61.3573287 41.28368176 -58.44625854 41.25898743 C-56.43129037 41.23842193 -54.41632655 41.21742557 -52.40136719 41.1960144 C-47.09133423 41.14075196 -41.78126208 41.0913611 -36.47116089 41.04316711 C-31.05527243 40.99298253 -25.63944107 40.9372806 -20.22360229 40.8820343 C-9.59214063 40.77440171 1.03937056 40.67296808 11.67092896 40.57539368 C10.98466431 39.90483948 10.29839966 39.23428528 9.59133911 38.54341125 C7.03793646 36.04446586 4.49460384 33.53547621 1.95413208 31.02339172 C0.85495043 29.93926071 -0.24691347 28.85784199 -1.35153198 27.7792511 C-2.94239366 26.22493624 -4.52323078 24.66099792 -6.10250854 23.09492493 C-6.5952829 22.61763443 -7.08805725 22.14034393 -7.59576416 21.64859009 C-10.41816677 18.82757679 -12.24094462 16.4338376 -13.32907104 12.57539368 C-13.2544085 8.3942913 -12.70020418 6.13807939 -10.39157104 2.63789368 C-6.71245076 0.16011879 -4.3826644 -0.30408079 0 0 Z " fill="#dc143c" transform="translate(421.3290710449219,310.4246063232422)"/>
</svg>
