<?xml version="1.0" encoding="UTF-8"?>
<svg version="1.1" xmlns="http://www.w3.org/2000/svg" width="50" height="50">
<path d="M0 0 C4.62 0 9.24 0 14 0 C14 12.87 14 25.74 14 39 C9.38 39 4.76 39 0 39 C0 26.13 0 13.26 0 0 Z M2 2 C2 13.55 2 25.1 2 37 C5.3 37 8.6 37 12 37 C12 25.45 12 13.9 12 2 C8.7 2 5.4 2 2 2 Z " fill="#000000" transform="translate(34,11)"/>
<path d="M0 0 C4.62 0 9.24 0 14 0 C14 8.58 14 17.16 14 26 C9.38 26 4.76 26 0 26 C0 17.42 0 8.84 0 0 Z M2 2 C2 9.26 2 16.52 2 24 C5.3 24 8.6 24 12 24 C12 16.74 12 9.48 12 2 C8.7 2 5.4 2 2 2 Z " fill="#000000" transform="translate(18,24)"/>
<path d="M0 0 C3.96 0 7.92 0 12 0 C12 3.63 12 7.26 12 11 C11.34 11 10.68 11 10 11 C9.67 9.35 9.34 7.7 9 6 C8.56131592 6.45439453 8.12263184 6.90878906 7.6706543 7.37695312 C5.68411205 9.42574719 3.68604501 11.46291556 1.6875 13.5 C0.99720703 14.21542969 0.30691406 14.93085938 -0.40429688 15.66796875 C-1.07138672 16.34472656 -1.73847656 17.02148438 -2.42578125 17.71875 C-3.34484253 18.66137695 -3.34484253 18.66137695 -4.2824707 19.62304688 C-6 21 -6 21 -9 21 C-8.41889329 17.57245533 -7.31446376 15.95461339 -4.83984375 13.546875 C-4.21142578 12.928125 -3.58300781 12.309375 -2.93554688 11.671875 C-2.27619141 11.03765625 -1.61683594 10.4034375 -0.9375 9.75 C-0.27427734 9.1003125 0.38894531 8.450625 1.07226562 7.78125 C2.70829317 6.1805324 4.35090912 4.58723807 6 3 C3.03 2.505 3.03 2.505 0 2 C0 1.34 0 0.68 0 0 Z " fill="#000000" transform="translate(11,7)"/>
<path d="M0 0 C4.62 0 9.24 0 14 0 C14 4.95 14 9.9 14 15 C9.38 15 4.76 15 0 15 C0 10.05 0 5.1 0 0 Z M2 2 C2 5.63 2 9.26 2 13 C5.3 13 8.6 13 12 13 C12 9.37 12 5.74 12 2 C8.7 2 5.4 2 2 2 Z " fill="#000000" transform="translate(2,35)"/>
</svg>
