<svg version="1.1" xmlns="http://www.w3.org/2000/svg" width="512px" height="512px" transform="rotate(0) scale(1, 1)">
<path d="M0 0 C6.94652198 3.62919176 12.08750203 9.13801977 17.53036499 14.65011597 C18.70655393 15.82279788 19.88382071 16.99439956 21.06207275 18.16500854 C24.2384836 21.32724875 27.39913685 24.50480872 30.55666685 27.68588781 C33.87251399 31.02193433 37.20143977 34.34488562 40.52856445 37.66967773 C46.11008663 43.25125337 51.68170416 48.84256375 57.24716187 54.44015503 C63.67344278 60.90335976 70.11370181 67.35236428 76.56195104 73.79364669 C82.77879915 80.00418209 88.98706603 86.22322293 95.19099808 92.44665909 C97.82553933 95.08935563 100.46277294 97.72932096 103.1021843 100.36715317 C106.21024296 103.47433059 109.3106145 106.58898524 112.40529251 109.70948792 C113.53949195 110.85082642 114.67621346 111.98966523 115.81567383 113.1257515 C117.37537078 114.68171093 118.92547203 116.24666115 120.47357178 117.81414795 C121.77594064 119.12210988 121.77594064 119.12210988 123.10461998 120.45649529 C128.41845525 126.6409402 130.76424138 132.47908505 130.6578064 140.615448 C130.12002783 147.0296796 126.83738515 151.68132962 122.44296265 156.177948 C117.02994497 159.44831285 112.16671118 160.30610666 105.91830444 160.29147339 C104.83756149 160.29139786 103.75681854 160.29132233 102.64332581 160.29124451 C101.48794815 160.28608322 100.3325705 160.28092194 99.1421814 160.27560425 C97.95066971 160.2741893 96.75915802 160.27277435 95.53153992 160.27131653 C91.73115514 160.26572528 87.93082958 160.25317432 84.13046265 160.240448 C81.55168746 160.23543187 78.97291134 160.23086916 76.39413452 160.22677612 C70.07705707 160.2157587 63.76001409 160.19902922 57.44296265 160.177948 C57.4484934 160.99148365 57.45402416 161.8050193 57.45972252 162.64320755 C57.59246345 182.47552373 57.69163088 202.3077629 57.75383568 222.14043045 C57.78472024 231.73154953 57.82679696 241.32237134 57.89559937 250.91329956 C57.95556733 259.27673957 57.99415101 267.63996419 58.00749362 276.00361323 C58.0152881 280.42862677 58.03349265 284.85302434 58.07734299 289.27783966 C58.11835989 293.45092858 58.13057381 297.62315349 58.12160873 301.79642487 C58.1232465 303.32013663 58.13500811 304.84388018 58.1581955 306.36741638 C58.29874888 316.08715765 57.17959453 324.02814274 51.44296265 332.177948 C43.0863255 340.34168957 34.86740773 342.33033453 23.37728882 342.32321167 C22.59107651 342.32657028 21.8048642 342.32992889 20.99482727 342.33338928 C18.40851235 342.34284933 15.82226252 342.34483995 13.2359314 342.34591675 C11.42760695 342.34913293 9.61928277 342.35249727 7.81095886 342.35600281 C4.02414344 342.36198183 0.23735081 342.36384399 -3.54946899 342.36325073 C-8.38447694 342.36314922 -13.21933769 342.37679586 -18.0543108 342.39402294 C-21.78883017 342.40518166 -25.5233144 342.40716875 -29.25784874 342.40664101 C-31.0395019 342.4078155 -32.82115612 342.41220726 -34.60279274 342.41997337 C-37.10302447 342.42985109 -39.60294236 342.42686476 -42.10317993 342.42086792 C-42.82815674 342.42648743 -43.55313354 342.43210693 -44.30007935 342.43789673 C-53.59539418 342.38168908 -61.49352098 340.44482718 -68.55703735 334.177948 C-73.81843051 327.79232554 -76.81064805 321.85476993 -76.79754639 313.50245667 C-76.79925524 312.84481616 -76.80096409 312.18717566 -76.80272472 311.50960666 C-76.80600954 309.31389933 -76.79503281 307.11850005 -76.78408813 304.92282104 C-76.7835238 303.34574897 -76.78384101 301.76867638 -76.78497314 300.19160461 C-76.7855468 295.91513147 -76.77379043 291.63877059 -76.75982523 287.36232352 C-76.74731999 282.89135034 -76.74614753 278.42037457 -76.74377441 273.9493866 C-76.73755904 265.48511211 -76.72114744 257.02088931 -76.70107543 248.55663759 C-76.67871823 238.9194692 -76.66772345 229.28229835 -76.65768456 219.64511049 C-76.63678127 199.82269415 -76.60160416 180.00032433 -76.55703735 160.177948 C-77.21356796 160.18460983 -77.87009857 160.19127167 -78.54652405 160.19813538 C-85.40894653 160.26475004 -92.27127643 160.30985685 -99.13394165 160.34274292 C-101.69159682 160.3577851 -104.24922639 160.37822389 -106.80679321 160.40426636 C-110.49313698 160.44085004 -114.17913826 160.45772068 -117.8656311 160.47091675 C-119.00036362 160.4864006 -120.13509613 160.50188446 -121.30421448 160.51783752 C-129.23812636 160.51950145 -136.49424694 159.81019984 -142.93203735 154.802948 C-147.92234918 149.81263618 -149.67568028 145.31642655 -149.80703735 138.365448 C-149.53236551 123.89235481 -135.85379962 114.32093204 -126.32095337 104.74899292 C-125.22239657 103.64251105 -124.124013 102.53585718 -123.02578735 101.42904663 C-119.45783412 97.83518739 -115.88471188 94.24649215 -112.3109436 90.65841675 C-111.07261196 89.4147156 -109.83428433 88.17101046 -108.59596062 86.92730141 C-103.44477809 81.75455131 -98.29218111 76.58321705 -93.13586521 71.41558361 C-85.78103908 64.04449657 -78.43486407 56.66502105 -71.10037667 49.27369422 C-65.91991585 44.05447288 -60.72984865 38.84492809 -55.53261322 33.64241105 C-52.43761484 30.54377255 -49.34687878 27.44115398 -46.26638985 24.32808495 C-43.37080181 21.40230228 -40.46342083 18.48876416 -37.54683685 15.58391571 C-36.4839603 14.52125882 -35.42529025 13.45437365 -34.37138939 12.38281441 C-24.84764656 2.70834597 -13.9899539 -6.49441217 0 0 Z " fill="#ffffff" transform="translate(265.5570373535156,27.822052001953125)"/>
<path d="M0 0 C5.6856304 5.66080232 8.89559318 10.37579736 8.93382263 18.49594116 C8.94072113 19.44042114 8.94761963 20.38490112 8.95472717 21.35800171 C8.95734055 22.38761017 8.95995392 23.41721863 8.96264648 24.47802734 C8.9693335 25.5680304 8.97602051 26.65803345 8.98291016 27.78106689 C8.99696316 30.15023048 9.00885642 32.51940762 9.01885796 34.88859177 C9.03529163 38.64815887 9.0585349 42.40762696 9.08375549 46.16714478 C9.1544358 56.85763729 9.2144378 67.54816812 9.26586914 78.23876953 C9.29741756 84.77923588 9.33916175 91.31959981 9.38606453 97.85997391 C9.40198994 100.3436137 9.41435465 102.82727915 9.42297173 105.31095505 C9.50749242 129.34124686 10.3106776 149.4139242 27.4765625 167.96875 C37.46973277 177.53585487 50.54915056 182.89425793 64.33521461 182.91267776 C65.96181241 182.91843948 65.96181241 182.91843948 67.62127078 182.9243176 C68.80180226 182.92345112 69.98233375 182.92258463 71.19863892 182.92169189 C72.46119991 182.92466302 73.7237609 182.92763414 75.02458131 182.9306953 C78.52234983 182.93874239 82.0200978 182.94055359 85.51787448 182.94129276 C89.2930905 182.94314733 93.06829597 182.95069671 96.84350586 182.95742798 C105.09575776 182.97099577 113.34800479 182.97703366 121.60026598 182.98143864 C126.75600697 182.98420382 131.91174609 182.98844169 137.06748581 182.99294281 C151.35067184 183.00513369 165.63385638 183.0154332 179.9170475 183.0188179 C181.28764253 183.01914725 181.28764253 183.01914725 182.68592634 183.01948325 C183.6018061 183.01970153 184.51768587 183.01991981 185.46131957 183.0201447 C187.31714924 183.02058816 189.17297892 183.02103473 191.02880859 183.02148438 C191.94935844 183.0217058 192.86990828 183.02192723 193.81835358 183.02215537 C208.72816448 183.02610178 223.63792647 183.04355183 238.54771848 183.0668439 C253.86641642 183.09058099 269.18508984 183.10302083 284.50380647 183.10418582 C293.1002172 183.10510128 301.69656418 183.11082102 310.29295731 183.12900543 C317.61424844 183.14443829 324.93545612 183.14950815 332.25676043 183.14126733 C335.98889274 183.13737201 339.72085716 183.13823537 343.4529686 183.15232468 C347.50796048 183.16749222 351.56257738 183.15916405 355.61758423 183.14874268 C357.36830496 183.16082728 357.36830496 183.16082728 359.15439379 183.17315602 C375.06782617 183.07782625 388.96609732 178.23821097 400.5390625 167.12890625 C414.38909211 152.67774688 417.92714086 136.75550718 417.94677734 117.31396484 C417.95185806 116.20223404 417.95693878 115.09050323 417.96217346 113.94508362 C417.97282432 111.54543199 417.98146493 109.14577075 417.98829269 106.74610519 C418.00014388 102.94605166 418.01960961 99.14610861 418.04141235 95.34609985 C418.10284118 84.54684849 418.15738138 73.74761959 418.19042969 62.94824219 C418.21076814 56.33068563 418.24666302 49.71331945 418.29118729 43.09587479 C418.30533884 40.57854271 418.3140678 38.06117402 418.31724167 35.54380417 C418.32214998 32.02556355 418.34530388 28.50787459 418.37255859 24.98974609 C418.36955246 23.9537175 418.36654633 22.9176889 418.3634491 21.8502655 C418.46619799 12.91894733 420.72676628 7.20067195 426.8359375 0.578125 C431.87101173 -4.05414329 437.91317913 -6.33167509 444.7890625 -6.21875 C454.45618705 -5.24303091 459.92636161 -1.50689988 466.2734375 5.68359375 C469.15345366 9.6695955 470.03888384 13.26819318 470.04975891 18.14096069 C470.05684372 19.20316833 470.06392853 20.26537598 470.07122803 21.35977173 C470.06875061 22.51512421 470.06627319 23.67047668 470.0637207 24.86083984 C470.06883163 26.08593262 470.07394257 27.31102539 470.07920837 28.57324219 C470.09072121 31.9292997 470.09317793 35.28511003 470.09064507 38.64117002 C470.08957249 41.45340771 470.094467 44.26562286 470.0992505 47.07785571 C470.11034416 53.72591192 470.11078644 60.37391166 470.10473633 67.02197266 C470.09872076 73.84569074 470.11094596 80.66920135 470.1323064 87.49288404 C470.1500301 93.37428791 470.15590622 99.25562646 470.15266865 105.13705599 C470.15086982 108.6391104 470.15334818 112.14101744 470.16738319 115.64304733 C470.26976104 143.55327804 470.26976104 143.55327804 466.7890625 155.78125 C466.441922 157.04961952 466.441922 157.04961952 466.08776855 158.34361267 C465.51880218 160.33648684 464.87222514 162.27136571 464.1640625 164.21875 C463.91245361 164.91629395 463.66084473 165.61383789 463.40161133 166.33251953 C458.69024738 178.81475694 451.80359544 189.94856638 442.7890625 199.78125 C441.94601562 200.70550781 441.10296875 201.62976563 440.234375 202.58203125 C421.11930258 222.61130279 394.05168994 235.17338066 366.31949615 236.06085014 C358.99338305 236.20276058 351.66761842 236.20342278 344.34052277 236.18808305 C340.49033009 236.18330817 336.64018531 236.19589907 332.79000854 236.20610046 C325.26697023 236.22321079 317.74401573 236.22414461 310.22096303 236.21888756 C304.09927307 236.21482959 297.97760769 236.21630863 291.85591888 236.22163582 C290.98129631 236.22238424 290.10667373 236.22313266 289.20554744 236.22390376 C287.4281606 236.22543541 285.65077377 236.22697375 283.87338695 236.22851873 C267.24152753 236.24221602 250.60971528 236.23682593 233.97785696 236.22533352 C218.80246787 236.21540702 203.62720081 236.22833668 188.45183054 236.25226771 C172.8254033 236.27672211 157.19903274 236.28625087 141.57258677 236.27961498 C132.81732938 236.27613643 124.06216571 236.27826391 115.30692291 236.29586601 C107.85285617 236.31066772 100.39894915 236.31112048 92.94488528 236.2937951 C89.15089719 236.28534716 85.35719341 236.28298084 81.56322098 236.29844666 C44.42767041 236.43882446 14.2052068 228.87543099 -12.9609375 202.34375 C-17.69834183 197.49211039 -21.63579094 192.53474168 -25.2109375 186.78125 C-25.86835938 185.74484375 -26.52578125 184.7084375 -27.203125 183.640625 C-30.97065724 177.41353398 -34.0563254 171.1961401 -36.5234375 164.34375 C-36.75361572 163.71331787 -36.98379395 163.08288574 -37.22094727 162.43334961 C-37.9678381 160.23376021 -38.59189851 158.02050051 -39.2109375 155.78125 C-39.46514465 154.88582489 -39.71935181 153.99039978 -39.98126221 153.06784058 C-43.10802524 140.10503 -42.66967353 126.93546434 -42.64684558 113.67686963 C-42.64372233 110.8709168 -42.64987939 108.06501281 -42.65588433 105.259067 C-42.66984155 98.63987242 -42.66843773 92.0208072 -42.65698242 85.40161133 C-42.64546362 78.59565547 -42.65965954 71.79009196 -42.6863789 64.98418766 C-42.70857014 59.10947084 -42.71516696 53.23487693 -42.70930248 47.36012119 C-42.70594542 43.86454797 -42.70826607 40.36922716 -42.72555351 36.87368965 C-42.74396564 32.98277582 -42.72980037 29.09234317 -42.71264648 25.20141602 C-42.72231445 24.05684937 -42.73198242 22.91228271 -42.74194336 21.73303223 C-42.66980586 13.91104415 -41.33669658 8.89792571 -36.53515625 2.57421875 C-26.38227078 -7.38481688 -11.29110635 -9.47895348 0 0 Z " fill="#ffffff" transform="translate(42.2109375,250.21875)"/>
</svg>