<?xml version="1.0" encoding="UTF-8"?>
<svg version="1.1" xmlns="http://www.w3.org/2000/svg" width="50" height="50">
<path d="M0 0 C3.63 0 7.26 0 11 0 C11 0.66 11 1.32 11 2 C8.03 2 5.06 2 2 2 C2 11.9 2 21.8 2 32 C12.56 32 23.12 32 34 32 C34 22.1 34 12.2 34 2 C31.03 2 28.06 2 25 2 C25 1.34 25 0.68 25 0 C28.63 0 32.26 0 36 0 C36 11.22 36 22.44 36 34 C24.12 34 12.24 34 0 34 C0 22.78 0 11.56 0 0 Z " fill="#000000" transform="translate(7,16)"/>
<path d="M0 0 C2.87806415 1.30764219 5.00692296 2.71141597 7.25 4.9375 C7.77078125 5.44152344 8.2915625 5.94554687 8.828125 6.46484375 C10 8 10 8 10 11 C6.38144425 10.37611108 5.8290723 9.8290723 3 7 C2.67 15.58 2.34 24.16 2 33 C1.34 33 0.68 33 0 33 C-0.33 24.42 -0.66 15.84 -1 7 C-2.32 8.32 -3.64 9.64 -5 11 C-5.99 11 -6.98 11 -8 11 C-7.43040847 7.37386801 -6.07625466 5.74482259 -3.4375 3.25 C-2.79683594 2.63640625 -2.15617187 2.0228125 -1.49609375 1.390625 C-1.00238281 0.93171875 -0.50867188 0.4728125 0 0 Z " fill="#000000" transform="translate(24,0)"/>
</svg>
